# xmcd
#
# Track frame offsets:
#	150
#	9783
#	25574
#	45823
#	60186
#	73537
#	92673
#	106841
#	118113
#	134583
#	151286
#	167559
#	178732
#	202060
#	216345
#	237798
#	248922
#	287245
#
# Disc length: 3912 seconds
#
# Revision: 0
# Processed by: cddbd v1.5PL3 Copyright (c) Steve Scherf et al.
# Submitted via: dBpowerAMP V4.0
#
DISCID=eb0f4612
DTITLE=Vince Lee and The Big Combo - Call It What Ya Wanna!
DYEAR=2003
DGENRE=Blues
TTITLE0=Early In The Morning
TTITLE1=Cold Hand In Mine
TTITLE2=Goin' Away Baby
TTITLE3=Jockey Full Of Bourbon
TTITLE4=Reet, Petite and Gone
TTITLE5=Sattelite
TTITLE6=Toughen Up
TTITLE7=Dummy On Your Knee
TTITLE8=How Big Can You Get?
TTITLE9=I'll Be Laughin'
TTITLE10=Can't Get You Off My Mind
TTITLE11=It's Obdacious
TTITLE12=Sit Right Here
TTITLE13=Old Friends
TTITLE14=Dallas Texas
TTITLE15=One Kiss
TTITLE16=I Broke My Baby's Heart
TTITLE17=Somebody Done Hoodooed The Hoodoo Man
EXTD=Fantastic old school style blues album, by Devon (UK) based Blues band.
EXTT0=
EXTT1=
EXTT2=
EXTT3=
EXTT4=
EXTT5=
EXTT6=
EXTT7=
EXTT8=
EXTT9=
EXTT10=
EXTT11=
EXTT12=
EXTT13=
EXTT14=
EXTT15=
EXTT16=
EXTT17=
PLAYORDER=
